<svg width="89" height="87" viewBox="0 0 89 87" fill="none" xmlns="http://www.w3.org/2000/svg">
<g clip-path="url(#clip0_2_34)">
<path d="M0.918091 75.7821C0.918091 81.9781 5.99837 87 12.2649 87H77.5709C83.8385 87 88.9181 81.9774 88.9181 75.7821V11.2182C88.9181 5.02187 83.8378 0 77.5712 0H12.2653C5.99768 0 0.918091 5.02255 0.918091 11.2179V75.7818V75.7821Z" fill="#563D7C"/>
<path d="M37.4099 38.4832V26.1629H48.3793C49.4243 26.1629 50.4315 26.2489 51.4015 26.4212C52.3716 26.5931 53.2299 26.9003 53.9762 27.3431C54.7222 27.786 55.3193 28.4007 55.7672 29.1875C56.2147 29.9746 56.4388 30.9829 56.4388 32.2121C56.4388 34.4255 55.7672 36.0241 54.4238 37.0076C53.0808 37.9915 51.3644 38.4832 49.2748 38.4832H37.4099ZM25.6938 17.1621V69.8379H51.5136C53.9016 69.8379 56.2274 69.5429 58.491 68.9526C60.7546 68.3623 62.7693 67.4525 64.5355 66.223C66.3014 64.9934 67.707 63.407 68.7516 61.4645C69.7966 59.5216 70.3188 57.2222 70.3188 54.5663C70.3188 51.2709 69.5103 48.4553 67.8936 46.1192C66.2766 43.7828 63.8264 42.1474 60.5429 41.2129C62.9309 40.0819 64.7346 38.6307 65.9535 36.8601C67.1721 35.0895 67.7816 32.8765 67.7816 30.2203C67.7816 27.7612 67.3711 25.6956 66.5503 24.0232C65.7294 22.3512 64.5727 21.0108 63.0801 20.0025C61.5879 18.9942 59.7969 18.2686 57.7073 17.8262C55.618 17.3833 53.3045 17.1621 50.7673 17.1621H25.6938ZM37.4099 60.8371V46.3771H50.1702C52.7074 46.3771 54.7473 46.9548 56.2897 48.111C57.8317 49.2668 58.6031 51.1971 58.6031 53.9023C58.6031 55.2797 58.3666 56.4107 57.8939 57.296C57.4213 58.1813 56.7871 58.8823 55.9909 59.3986C55.1952 59.9151 54.2746 60.2839 53.2299 60.5054C52.1849 60.7263 51.0908 60.8371 49.9464 60.8371H37.4099Z" fill="white"/>
</g>
<defs>
<clipPath id="clip0_2_34">
<rect width="88" height="87" fill="white" transform="translate(0.918091)"/>
</clipPath>
</defs>
</svg>
