<?xml version="1.0" encoding="UTF-8"?><svg id="a" xmlns="http://www.w3.org/2000/svg" viewBox="0 0 607.59 161.87"><path d="M277.82,24.26c.07-.16,.14-.31,.2-.45m8.4,42.08c-1.51,6.43-3.84,14.84-7.55,24.48-.89,10.49-1.35,23.74,.32,35.3,.44,3.07,1.22,7.46,4.27,8.78,2.04,.89,4.86-.3,9.17-2.47,11.31-5.84,19.96-17.04,18.91-30.05,1.26-19.28,3.58-38.49,7.93-57.31,.31-.02,2.05-.07,3.33,1.23,.61,.63,.88,1.32,.99,1.73-1.47,8.22-2.83,16.75-4.03,25.6-1.58,11.6-2.77,22.77-3.65,33.47,12.65-8.39,25.6-12.03,40.11-10.15,.11,2.64,.86,5.84-2.96,5.07-9.91-.83-20.54,.79-28.67,6.55,27.8,5.01,28.74,27.52,35.04,23.3,10.33-14.03,4.93-38.63,32.68-36.03,5.13,1.04,8.31,6.68,13.84,5.18,4.51,.84,17.99-7.26,19.98,1.43-4.03,2.2-11.92,1.05-13.49,5.9-.43,17.49,1.92,22.87,7.25,26.86,6.37-1.27,7.97-15.96,13.16-11.05-.59,21.64,16.89,17.95,17.94,.15,2.31-10.99-4.53-15.46,7.23-19.83-10.94-22.96,48.81-23.27,25.86-1.42-2.04-2.86,1.78-6.86,1.78-8.46-4.85-9.27-35.22-.58-18.95,12.78,12.91,7.28,23.57-5.76,34.71,10.6,25.9,10.84,8.45-68.26,7.05-81.2,.32-.1,1.34-.38,2.54,.04,1.19,.42,1.81,1.27,2,1.56,2.5,10.15,4.74,21.93,6.09,35.11,1.48,14.48,1.56,27.55,1,38.76,2.72-3,8.1-8.12,16.47-11.46,10.44-4.17,19.68-3.24,23.79-2.57l-.64,4.34-3.05-.32c-2.64-.43-6.2-.68-10.29,0-9.19,1.52-15.22,6.76-17.7,9.2,23.88-3.32,23.89,38.21,30.6,13.71,2.74-12.02,5.1-9.52,15.27-13.82,3.01-40.81,23.39-23.04,4.82,4.1-.2,2.62-.2,6.86,1.37,11.7,1.29,4,2.3,7.13,4.79,8.23,4.91,2.16,14.55-4.05,16.87-12.62,2.39-8.82-4.02-16.37-4.74-17.2-.53-.44-.77-.9-.88-1.21-.51-1.36,.13-3.11,1.61-4.41,2.39,1.9,7.4,6.81,8.69,14.04,4.21,23.51-34.57,45.66-32.12,2.18-14.16,.08-10.57,17.65-17.44,21.3-9.56,5.7-10.25-21.12-25.39-21.54-17.08-1.32-8.98,17.91-18.8,23.54-.46-4.93-.13-12.18,1.02-17.65-3.48,1.33-6.67,2.55-9.97,3.81-3.71,19.05-32.5,17.8-42.23,2.32,3.05-1.94,7.9,.93,9.39,2.92,11.1,9.53,34.02,2.42,25.41-10.12-10.38-14.33-24.16,.58-36.82-11.9-9.92,5.91-.54,16.61-10.13,29.65-4.15,7.27-17.67,8.52-21.26-3.32-16.4,18.09-24.03-15.55-21.47-28.44h-4.4c5.33,20.31-18.28,49.32-36.7,25.81-1.79,2.38-4.74,5.52-8.45,5.58-7.32,.13-10.02-11.82-21.1-19.19-7.08-4.72-14.86-5.75-20.72-5.79v26.08c-.46,.29-1.73,.99-3.41,.85-.89-.08-1.59-.37-2.03-.6v-14.39l-.65-.17c-9.56,11.59-21.55,17.45-28.48,14.08-8.47-4.13-10.03-21.64-8.43-31.61,.38-2.35,1.39-7.14,.74-7.35-.55-.17-1.81,2.96-3.9,6.81-2.53,4.67-5.09,8.25-6.96,10.66-4.37,12.94-14.38,22.26-26.04,23.79-7.07,.93-12.95-1.25-16.22-2.82-22.1,19.1-31.18-9.26-25.37-28.07-.23,.35-2.38,3.47-5.98,3.51-1.49,.02-2.66-.5-3.33-.87,3.53-3.64,17.75-23.96,17.11-9-3.33,9.45-10.1,38.22,7.21,34.7,2.55-.5,5.92-1.61,7.83-4.47,1.41-2.1,1.45-4.3,1.5-5.14,.44-8.08,7.77-20.04,15.73-26.58,3.92-3.22,11.93-9.83,18.94-6.79,6.94,3.01,7.94,13.33,8.02,14.33,2.15-2.05,4.89-5.09,7.35-9.24,2.47-4.17,3.82-8.04,4.58-10.92-.29-13.78,.63-25.16,1.63-33.44,.97-8.02,3.32-27.52,7.29-27.64,.75-.02,1.66,.64,3.06,3.51,3.95,8.15,3.91,17.99,.16,33.99Zm-1.82-45.32c.11,.13,.24,.29,.4,.48m-21.7,20.74c-1.58-.84-4.36-2.51-4.12-4.1,.16-1.05,1.56-1.65,2.06-1.86,36.82-15.92,38.39-16.4,41.52-17.36,1.78-.55,5.55-1.71,8.72,.12,1.45,.84,2.32,2.04,2.83,2.89-1.58,.16-3.87,.45-6.6,.96-6.13,1.17-11.78,3.01-20.6,6.96-6.27,2.81-14.44,6.82-23.82,12.37Zm-5.59,71.88c.04-.76,.51-10.67-4.39-12.96-.95-.44-1.85-.5-2.66-.48-5.89,.16-16.93,5.35-22.18,16.94-1.28,2.82-5.57,12.28-1.23,17.07,3.28,3.63,9.64,2.53,11.25,2.25,10.48-1.81,18.65-12.71,19.21-22.82Zm140.49-2.08c-.19-1.04-.39-3.05-.95-4.96-1.28-4.37-4.5-6.76-8.99-6.42-6.14,.46-11.19,3.28-13.96,8.77-2.01,4.01-3.32,8.47-4.27,12.88-1.3,6,.79,9.44,6.36,12,6.15,2.83,11.99,1.45,16.09-3.91,3.91-5.12,5.42-11.06,5.72-18.36Zm-119.49-35.85c.64,.14,4.54-10.47,5.14-23.36,.36-7.78-.55-15-1.07-15-.47,0-.49,5.77-1.5,16.5-1.42,15.1-3.07,21.75-2.57,21.86Z"/><path d="M190.01,131.16c-4.63,5.88-9.24,11.37-15.92,14.14-5.67,2.35-10.77,1.14-14.88-3.61-2.38-2.74-4.26-5.96-6.48-8.86-1.78-2.33-3.72-4.5-5.79-6.98-2.32,3.47-4.12,6.59-6.34,9.32-2.03,2.5-4.29,4.97-6.87,6.74-3.78,2.6-7.52,1.63-10.19-2.25-3.08-4.47-3.97-9.57-2.61-14.91,.95-3.71,3.56-5.91,6.9-7.1,4.92-1.76,11.87-.86,14.41,.09,.31,.12,1.28,.5,2.19,.08,.92-.43,1.31-1.45,1.44-1.78,2.02-5.04,17.49-36.79,20.6-42.9,1.55-3.04,3.97-7.48,7.44-12.62-7.14,.04-19.71-.96-33.31-8.13-8.3-4.37-14.42-9.69-18.58-13.96,.52,5.86,.71,13.19-.16,21.53-.95,9.13-2.89,16.8-4.8,22.7-1.33-.79-3.2-2.22-3.78-4.53-.35-1.41-.09-2.61,0-3.07,1.69-7.83,3.84-17.4,4-24.21,.15-6.52-.45-13.08-1.8-19.68-.06-.31-.7-1.46-.32-2.61,.51-1.56,2.61-2.65,4.15-2.16,1.42,.45,2,2.23,2.28,2.56,11.15,13.28,24.5,22.42,41.3,24.73,6.08,.84,12.96,.35,12.96,.35,.56-.03,1.03-.06,1.32-.07,2.37-4.53,4.62-8.13,6.4-10.75,1.99-2.94,3.46-4.52,5.51-6.16,4.41-3.54,10-3.18,14.32,.47,2.91,2.46,4.21,5.59,3.79,8.49-.1,.68-.51,2.7-4.18,5.95-2.17,1.92-6.01,4.74-11.88,6.42-3.46,.7-6.91,1.4-10.37,2.1-.01,.02-.65,1.25-.66,1.27-10.11,19.55-20.19,39.11-30.27,58.68,1.39,1.3,3.4,3.3,5.62,5.93,7.12,8.42,8.05,13.43,12.59,14.36,2.89,.59,5.52-.85,7.37-1.85,4.25-2.28,6.24-5.88,6.94-7.32,.47-.36,2.08-1.5,4.36-1.41,1.59,.06,2.75,.68,3.3,1.02Zm-48.42-7.54c-4.47-1.64-8.65-1.98-12.86-.16-2.15,.93-3.24,2.92-3.01,5.17,.26,2.48,1.05,4.95,1.97,7.26,.74,1.83,2.23,2.22,3.85,.87,4.21-3.51,7.27-8,10.04-13.13Zm42.64-71.75c6.84,.17,11.3-1.87,13.72-3.33,1.7-1.02,3.86-2.36,3.8-4.12-.06-1.9-2.69-3.52-4.91-3.79-.73-.09-2.84-.81-4.94,1.43-2.82,2.99-5.14,6.51-7.67,9.82Z"/><g><path d="M97.91,126.75c.54,2.21,1.18,6.37-.55,10.85-2.77,7.17-10.36,11.93-17.32,11.51-1.15-.07-5.17-.3-8.21-3.25-1.56-1.51-2.69-3.52-3.23-5.97-1.39-6.29-1.77-11.41-1.75-14.36,.06-14.13-1.28-20.65-2.04-23.74-1.89-7.72-3.89-9.44-5.56-10.01-2.21-.75-4.57,.25-7.62,1.55-3.72,1.58-6.37,3.63-7.94,5.02-1.88,.35-3.38,.09-3.7-.65-.33-.76,.5-1.98,1.42-2.76,1.39-1.18,2.75-2.43,4.28-3.41,14.28-9.18,23.21-22.46,29.08-38.02,3.62-9.61,6.12-19.49,5.76-29.87-.07-2.08-.32-4.2-.8-6.22-1.13-4.77-3.4-8.35-6.7-10.43-2.61-1.65-5.8-2.36-11.65-1.72-3.7,.41-15.39,2.09-30.88,12.82-6.27,4.35-11.22,7.84-15.94,14.4-4.84,6.72-7.02,13.3-8.08,17.6-.1,.39-.53,1.77-1.89,2.65-2.09,1.36-4.44,.28-4.58,.21,1.41-4.09,2.3-8.16,4.14-11.75C15.43,19.25,33.68,6.19,57.41,.65c4.04-.94,8.6-.78,12.72-.02,8.5,1.57,13.96,8.67,15.17,18.24,1.62,12.78-1.44,24.83-5.74,36.64-4,11-9.89,20.92-17.95,29.49-.37,.39-.68,.83-1.15,1.41,8.46,4.53,8.85,12.95,9.88,20.77,1.18,8.94,1.63,17.98,2.32,26.98,.38,4.98,2.15,7.78,4.72,9.08,3.88,1.97,9.5-.51,12.43-3.58,1.04-1.09,3.53-3.7,3.69-7.24,.07-1.47-.28-2.7,.53-3.88,.87-1.28,2.54-1.67,3.86-1.8Z"/><path d="M34.44,154.28c.89,3.97-.09,6.99-1.68,7.51-.26,.08-1.12,.29-2.55-.7-2.06-16.87-3.37-36.86-2.5-59.29,.77-19.71,3.11-39.38,6.97-59.06,.63-1.06,1.87-1.58,3.01-1.27,1,.27,1.76,1.12,1.94,2.18-2.17,11.21-4.01,23.33-5.26,36.29-2.68,27.88-2.01,52.98,.07,74.35Z"/></g><path d="M256.67,96.43c-.78,.78-1.93,.95-2.76,.46-.9-.53-1.01-1.6-1.02-1.71,1.98-5.58,4.13-13.76,4.27-23.77,.09-6.72-.76-12.51-1.78-17.06,1.34,.02,3.19,.28,4.69,1.51,1.36,1.12,2.72,3.28,2.46,11.63-.19,6.14-1.11,10.82-1.51,12.74-.85,4.12-2.19,9.69-4.36,16.22Z"/><path d="M214.19,74.9c.01,4.85-2.71,8.22-6.59,8.16-4.56-.07-8.96-3.95-9.01-7.96-.06-4.52,4.92-9.36,9.51-9.27,3.45,.07,6.08,3.98,6.1,9.07Zm-8.79-2.43c-.07,.06-2.17,1.73-1.1,3.15,.75,1,2.3,1.4,3.51,2.05,2.2-2.12,2.55-4.62,1.64-5.57-.8-.84-2.82-.71-4.05,.37Z"/><path d="M581.68,72.83c-.03-3.76,2.4-6.34,6.01-6.39,4.4-.07,8.38,2.99,8.49,6.53,.12,3.83-4.22,8-8.3,7.96-3.32-.03-6.16-3.75-6.19-8.1Zm10.09,.06c-.34-1.29-2.07-2.27-3.96-1.72-1.65,.78-2.39,2.46-1.96,3.62,.55,1.48,2.94,1.89,4.42,1.02,.92-.54,1.8-1.75,1.5-2.91Z"/><path d="M103.54,136.55c-.02-3.86,2.25-6.65,5.37-6.6,3.87,.07,7.52,3.46,7.48,6.92-.05,3.56-3.75,7.04-7.43,7-3.06-.04-5.39-3.19-5.42-7.32Z"/></svg>